<?xml version="1.0" encoding="utf-8"?>
<!-- Generator: Adobe Illustrator 19.0.0, SVG Export Plug-In . SVG Version: 6.00 Build 0)  -->
<svg version="1.1" id="Capa_1" xmlns="http://www.w3.org/2000/svg" xmlns:xlink="http://www.w3.org/1999/xlink" x="0px" y="0px"
	 viewBox="-355 616.3 89 48.7" style="enable-background:new -355 616.3 89 48.7;" xml:space="preserve">
<style type="text/css">
	.st0{fill:#FFFFFF;}
</style>
<path class="st0" d="M-310.5,623.9c-22.6,0-41.1,6.7-41.1,14.9s18.5,14.9,41.1,14.9s41.1-6.7,41.1-14.9S-287.9,623.9-310.5,623.9z
	 M-310.5,652c-22.2,0-40.2-6-40.2-13.3c0-7.3,18-13.3,40.2-13.3s40.2,6,40.2,13.3C-270.3,646-288.4,652-310.5,652z"/>
<path class="st0" d="M-289.3,638.2c0.1-3.6-4.6-2.6-6.6-0.1c-1.2,1.4-2.2,4.5-1,6c0.5,0.6,1.2,0.9,2.2,0.9c0.7,0,1.5-0.2,2.2-0.7
	c1.7-1.1,2.5-2.6,0.1-0.9c-1.1,0.9-2.2,0.4-2.6-0.3c-0.2-0.5-0.3-1-0.2-1.7C-293.2,641-289.4,640.8-289.3,638.2z M-295.3,640.7
	c0.3-2.4,3.4-5,3.9-2.7C-291,639.4-293.6,640.6-295.3,640.7z"/>
<path class="st0" d="M-318.6,644l1.9-5.4c0.2-0.6,0.4-1.9-0.6-0.7c-1.4,1.8-0.4-0.4,0.3-1c0.6-0.5,1.1-0.8,1.6-0.8
	c0.3,0,0.6,0.1,0.7,0.3c0.1,0.2,0.1,0.7,0.1,1.1c0,0.3-0.1,0.5-0.2,0.8c-0.1,0.3-0.2,0.6-0.3,1l0.1,0.1c0.6-1.1,1.1-1.9,1.7-2.5
	c0.6-0.5,1.1-0.8,1.7-0.8c0.4,0,0.6,0.1,0.9,0.4c0.2,0.2,0.3,0.5,0.3,0.9c-0.2,1.7-1.8,1.2-2.4,0.1c-0.4,0.2-0.8,0.7-1.2,1.3
	c-0.4,0.6-0.8,1.5-1.2,2.6l-1,2.7C-317,645.4-319.1,645.4-318.6,644L-318.6,644z"/>
<path class="st0" d="M-310.2,644l1.9-5.4c0.2-0.6,0.4-1.9-0.6-0.7c-1.4,1.8-0.4-0.4,0.3-1c0.6-0.5,1.1-0.8,1.6-0.8
	c0.3,0,0.6,0.1,0.7,0.3c0.1,0.2,0.1,0.7,0.1,1.1c0,0.3-0.1,0.5-0.2,0.8s-0.2,0.6-0.3,1l0.1,0.1c0.6-1.1,1.1-1.9,1.7-2.5
	c0.6-0.5,1.1-0.8,1.7-0.8c0.4,0,0.6,0.1,0.9,0.4c0.2,0.2,0.3,0.5,0.3,0.9c-0.2,1.7-1.8,1.2-2.4,0.1c-0.4,0.2-0.8,0.7-1.2,1.3
	c-0.4,0.6-0.8,1.5-1.2,2.6l-1,2.7C-308.6,645.4-310.7,645.4-310.2,644L-310.2,644z"/>
<path class="st0" d="M-288.7,644l1.9-5.4c0.2-0.6,0.4-1.9-0.6-0.7c-1.4,1.8-0.4-0.4,0.3-1c0.6-0.5,1.1-0.8,1.6-0.8
	c0.3,0,0.6,0.1,0.7,0.3c0.1,0.2,0.1,0.7,0.1,1.1c0,0.3-0.1,0.5-0.2,0.8s-0.2,0.6-0.3,1l0.1,0.1c0.6-1.1,1.1-1.9,1.7-2.5
	c0.6-0.5,1.1-0.8,1.7-0.8c0.4,0,0.6,0.1,0.9,0.4c0.2,0.2,0.3,0.5,0.3,0.9c-0.2,1.7-1.8,1.2-2.4,0.1c-0.4,0.2-0.8,0.7-1.2,1.3
	c-0.4,0.6-0.8,1.5-1.2,2.6l-1,2.7C-287,645.4-289.2,645.4-288.7,644L-288.7,644z"/>
<path class="st0" d="M-320.4,636.6c0.4-0.9-1.5-0.8-1.8-0.2c0,0-0.2-0.1-0.5-0.2c-0.3-0.1-0.6-0.2-0.9-0.2c-0.5,0-1.2,0.2-1.8,0.5
	c-0.7,0.3-1.3,0.8-1.8,1.3c-0.6,0.6-1.2,1.3-1.6,2.1c-0.4,0.8-0.7,1.5-0.8,2.3c-0.1,0.9,0,1.6,0.3,2.1s0.8,0.8,1.5,0.8
	c0.5,0,1.1-0.2,1.6-0.6c0.6-0.4,1.2-1,1.8-1.8c-0.3,0.8-0.9,2.3,0.4,2.3c0.5,0,1.1-0.2,1.6-0.7c0.5-0.4,0.7-0.7,1.2-1.4
	c1-1.6-0.7,0.2-0.9,0.4c-0.7,0.7-1.1,0.4-0.8-0.4L-320.4,636.6z M-326.7,643.1c-2,0,1.2-6.3,3.3-6.3
	C-321.6,636.8-324.5,643.2-326.7,643.1z"/>
<path class="st0" d="M-299.6,643.5c-0.3,0.6-1.6,1.6-2.3,1.6c-1.5-0.1-1.2-1.8-0.9-2.7l1.8-5.1c0.6-1.8,2.2-1,1.7,0.4
	c-0.4,1.2-0.8,2.6-1.3,3.7c-0.4,1-0.6,1.6-0.6,1.8C-301.3,645.3-297.9,640.5-299.6,643.5L-299.6,643.5z"/>
<path class="st0" d="M-298.7,632.8c0.6,0,1,0.6,0.9,1.3c-0.1,0.7-0.8,1.3-1.4,1.3c-0.6,0-1-0.6-0.9-1.3S-299.4,632.8-298.7,632.8
	L-298.7,632.8z"/>
<path class="st0" d="M-332,643.7c-0.7,0.5-1.5,0.8-2.4,1.1c-6,1.7-8-5.4-3.6-9.2c1.6-1.4,3.6-2.3,5.6-2.8c2.4-0.6,4.7-0.4,4.7,1.4
	c0,0.6-0.6,1.1-1.3,1.1s-1.3-0.6-1.3-1.1s0.1-0.6,0.3-0.8c-3.3-0.5-7.4,2-8.1,6.6c-0.3,1.9,0.9,4,3.2,3.8c0.4,0,1.8-0.3,2.9-1.2
	C-331.2,642.1-330.5,642.6-332,643.7L-332,643.7z"/>
<g>
	<path class="st0" d="M-279,651.6c-1.2,0-2.1,1-2.1,2.1c0,1.2,0.9,2.1,2.1,2.1s2.1-0.9,2.1-2.1C-276.9,652.5-277.8,651.6-279,651.6z
		 M-279,655.5c-1,0-1.8-0.8-1.8-1.8s0.8-1.8,1.8-1.8s1.8,0.8,1.8,1.8S-278,655.5-279,655.5z"/>
	<g>
		<path class="st0" d="M-279.7,652.7c0.1,0,0.3,0,0.5,0c0.3,0,0.5,0.1,0.6,0.2c0.1,0.1,0.2,0.2,0.2,0.4c0,0.3-0.2,0.5-0.4,0.5v0
			c0.2,0.1,0.3,0.2,0.3,0.4c0.1,0.3,0.1,0.5,0.2,0.6h-0.3c0-0.1-0.1-0.2-0.1-0.5c-0.1-0.3-0.2-0.4-0.4-0.4h-0.3v0.9h-0.3V652.7z
			 M-279.4,653.7h0.3c0.3,0,0.5-0.2,0.5-0.4c0-0.3-0.2-0.4-0.5-0.4c-0.1,0-0.2,0-0.3,0V653.7z"/>
	</g>
</g>
</svg>
