<?xml version="1.0" encoding="utf-8"?>
<!-- Generator: Adobe Illustrator 19.0.0, SVG Export Plug-In . SVG Version: 6.00 Build 0)  -->
<svg version="1.1" id="Capa_1" xmlns="http://www.w3.org/2000/svg" xmlns:xlink="http://www.w3.org/1999/xlink" x="0px" y="0px"
	 viewBox="-325 621.4 147.6 38.6" style="enable-background:new -325 621.4 147.6 38.6;" xml:space="preserve">
<style type="text/css">
	.st0{fill:#7AC743;}
	.st1{opacity:0.4;}
	.st2{fill:#FCC509;}
	.st3{fill:#3FA7F3;}
	.st4{fill:#4C4C4C;}
	.st5{fill:#FFFFFF;}
</style>
<g id="XMLID_2664_">
	<path id="XMLID_2684_" class="st0" d="M-304.6,644.6L-304.6,644.6c-5,1.3-10.3,2.7-13.5,0.6c0,8.1,6.6,6.7,13.5,5.1l0,0
		c5-1.3,10.3-2.7,13.5-0.6C-291.1,641.6-297.7,643.1-304.6,644.6z"/>
	<g id="XMLID_2678_" class="st1">
		<path id="XMLID_2683_" class="st0" d="M-318,646.2c-2.4,0.3-4.5,0.1-6.2-1c0,6.5,4.2,6.9,9.4,6
			C-316.6,650.6-317.8,649.1-318,646.2z"/>
	</g>
	<path id="XMLID_2677_" class="st2" d="M-304.6,634.7L-304.6,634.7c-5,1.3-10.3,2.7-13.5,0.6c0,8.1,6.6,6.7,13.5,5.1l0,0
		c5-1.3,10.3-2.7,13.5-0.6C-291.1,631.7-297.7,633.2-304.6,634.7z"/>
	<g id="XMLID_2669_" class="st1">
		<path id="XMLID_2670_" class="st2" d="M-318,636.3c-2.4,0.3-4.5,0.1-6.2-1c0,6.5,4.2,6.9,9.4,6
			C-316.6,640.7-317.8,639.2-318,636.3z"/>
	</g>
	<path id="XMLID_2667_" class="st3" d="M-304.6,624.8L-304.6,624.8c-5,1.3-10.3,2.7-13.5,0.6c0,8.1,6.6,6.7,13.5,5.1l0,0
		c5-1.3,10.3-2.7,13.5-0.6C-291.1,621.8-297.7,623.2-304.6,624.8z"/>
	<g id="XMLID_2665_" class="st1">
		<path id="XMLID_2666_" class="st3" d="M-318,626.4c-2.4,0.2-4.6,0.1-6.2-1c0,6.5,4.2,6.9,9.4,6
			C-316.6,630.7-317.8,629.3-318,626.4z"/>
	</g>
</g>
<g>
	<path class="st4" d="M-281.4,605v-8h1.8c0.5,0,0.9,0.1,1.3,0.4c0.3,0.2,0.6,0.5,0.7,1c0.1,0.2,0.1,0.5,0.1,0.8c0,0.5-0.1,1-0.4,1.3
		c-0.1,0.1-0.3,0.2-0.4,0.3c0.3,0.1,0.5,0.3,0.7,0.6c0.1,0.2,0.2,0.5,0.3,0.8c0,0.2,0,0.4,0,0.6c0,0.5-0.1,0.9-0.3,1.3
		c-0.1,0.3-0.4,0.5-0.6,0.7c-0.3,0.2-0.6,0.3-0.9,0.3H-281.4z M-280.1,600.2h0.5c0.4,0,0.6-0.2,0.8-0.5c0-0.1,0.1-0.3,0.1-0.5
		c0-0.3-0.1-0.6-0.2-0.8c-0.1-0.2-0.3-0.2-0.6-0.2h-0.5V600.2z M-280.1,603.8h0.5c0.4,0,0.7-0.2,0.9-0.6c0.1-0.1,0.1-0.3,0.1-0.5
		c0-0.4-0.1-0.8-0.3-1c-0.2-0.2-0.4-0.3-0.7-0.3h-0.5V603.8z"/>
	<path class="st4" d="M-273.3,605c-0.5,0-1-0.2-1.4-0.6c-0.4-0.4-0.6-0.8-0.6-1.3v-6.2h1.2v6.2c0,0.2,0.1,0.4,0.2,0.5
		c0.1,0.1,0.3,0.2,0.5,0.2c0.2,0,0.4-0.1,0.5-0.2c0.1-0.1,0.2-0.3,0.2-0.5v-6.2h1.3v6.2c0,0.5-0.2,1-0.6,1.4
		C-272.3,604.9-272.8,605-273.3,605z"/>
	<path class="st4" d="M-269.2,605v-8h3.4v1.2h-2.2v2.2h1.6v1.2h-1.6v2.2h2.2v1.2H-269.2z"/>
	<path class="st4" d="M-262.5,596.9l1.6,5.4v-5.4h1.2v8h-1.3l-1.7-5.1v5.1h-1.2v-8H-262.5z"/>
	<path class="st4" d="M-256.1,603.1l-0.3,1.8h-1.3l1.4-8h1.7l1.3,8h-1.3l-0.3-1.8H-256.1z M-255.5,598.8l-0.4,3.2h0.9L-255.5,598.8z
		"/>
	<path class="st4" d="M-247.5,603c0,0.6-0.1,1-0.4,1.4c-0.2,0.3-0.5,0.5-0.8,0.6c-0.2,0.1-0.4,0.1-0.7,0.1c-0.5,0-0.9-0.1-1.2-0.4
		c-0.3-0.2-0.5-0.5-0.6-0.8c-0.2-0.3-0.2-0.7-0.3-1.1l1.2-0.1c0.1,0.5,0.2,0.8,0.4,1c0.1,0.2,0.3,0.2,0.5,0.2c0.3,0,0.5-0.1,0.6-0.4
		c0.1-0.1,0.1-0.3,0.1-0.5c0-0.3-0.2-0.7-0.5-1c-0.2-0.2-0.6-0.6-1.1-1c-0.4-0.4-0.7-0.7-0.8-1c-0.2-0.3-0.3-0.7-0.3-1.1
		c0-0.7,0.2-1.3,0.7-1.7c0.3-0.2,0.7-0.3,1.1-0.3c0.4,0,0.8,0.1,1.1,0.3c0.2,0.1,0.4,0.4,0.6,0.6s0.2,0.6,0.3,0.9l-1.2,0.2
		c0-0.3-0.1-0.6-0.3-0.8c-0.1-0.1-0.3-0.2-0.5-0.2c-0.2,0-0.4,0.1-0.5,0.3c-0.1,0.2-0.1,0.4-0.1,0.6c0,0.4,0.2,0.7,0.5,1.1
		c0.1,0.1,0.3,0.3,0.5,0.5c0.3,0.2,0.5,0.4,0.6,0.5c0.3,0.3,0.5,0.6,0.7,0.9c0.1,0.1,0.1,0.3,0.2,0.4
		C-247.6,602.5-247.6,602.7-247.5,603z"/>
	<path class="st4" d="M-243.7,605v-8h3.4v1.2h-2.2v2.2h1.6v1.2h-1.6v2.2h2.2v1.2H-243.7z"/>
	<path class="st4" d="M-233.9,605h-1.3l-0.9-2.6l-0.9,2.6h-1.3l1.6-4l-1.6-4h1.3l0.9,2.5l0.9-2.5h1.3l-1.6,4L-233.9,605z"/>
	<path class="st4" d="M-229.9,596.9c0.6,0,1.1,0.2,1.4,0.6c0.3,0.4,0.5,0.8,0.5,1.4v1.2c0,0.5-0.2,1-0.6,1.4
		c-0.4,0.4-0.8,0.6-1.3,0.6h-0.7v3h-1.2v-8H-229.9z M-229.2,598.9c0-0.2-0.1-0.4-0.2-0.5c-0.1-0.1-0.3-0.2-0.5-0.2h-0.7v2.6h0.7
		c0.2,0,0.4-0.1,0.5-0.2c0.1-0.1,0.2-0.3,0.2-0.5V598.9z"/>
	<path class="st4" d="M-226,605v-8h3.4v1.2h-2.2v2.2h1.6v1.2h-1.6v2.2h2.2v1.2H-226z"/>
	<path class="st4" d="M-218.7,596.9c0.7,0,1.2,0.2,1.5,0.6c0.3,0.3,0.4,0.8,0.4,1.4v1.2c0,0.6-0.2,1-0.6,1.4l0.9,3.5h-1.3l-0.7-3
		c0,0-0.1,0-0.1,0h-0.7v3h-1.2v-8H-218.7z M-218,598.9c0-0.5-0.2-0.7-0.7-0.7h-0.7v2.6h0.7c0.2,0,0.4-0.1,0.5-0.2
		c0.1-0.1,0.2-0.3,0.2-0.5V598.9z"/>
	<path class="st4" d="M-213.3,605h-1.2v-8h1.2V605z"/>
	<path class="st4" d="M-211.1,605v-8h3.4v1.2h-2.2v2.2h1.6v1.2h-1.6v2.2h2.2v1.2H-211.1z"/>
	<path class="st4" d="M-204.4,596.9l1.6,5.4v-5.4h1.2v8h-1.3l-1.7-5.1v5.1h-1.2v-8H-204.4z"/>
	<path class="st4" d="M-197.5,605.1c-0.5,0-1-0.2-1.4-0.6s-0.6-0.8-0.6-1.4v-4.4c0-0.5,0.2-1,0.6-1.4s0.8-0.6,1.4-0.6
		c0.5,0,1,0.2,1.4,0.6c0.4,0.4,0.6,0.8,0.6,1.4v0.9h-1.3v-0.9c0-0.2-0.1-0.4-0.2-0.5c-0.1-0.1-0.3-0.2-0.5-0.2
		c-0.2,0-0.4,0.1-0.5,0.2c-0.1,0.1-0.2,0.3-0.2,0.5v4.4c0,0.2,0.1,0.4,0.2,0.5c0.1,0.1,0.3,0.2,0.5,0.2c0.2,0,0.4-0.1,0.5-0.2
		c0.1-0.1,0.2-0.3,0.2-0.5V602h1.3v1.1c0,0.5-0.2,1-0.6,1.4C-196.6,604.9-197,605.1-197.5,605.1z"/>
	<path class="st4" d="M-192.3,605h-1.2v-8h1.2V605z"/>
	<path class="st4" d="M-188.7,603.1l-0.3,1.8h-1.3l1.4-8h1.7l1.3,8h-1.3l-0.3-1.8H-188.7z M-188.1,598.8l-0.4,3.2h0.9L-188.1,598.8z
		"/>
	<path class="st4" d="M-180.2,603c0,0.6-0.1,1-0.4,1.4c-0.2,0.3-0.5,0.5-0.8,0.6c-0.2,0.1-0.4,0.1-0.7,0.1c-0.5,0-0.9-0.1-1.2-0.4
		c-0.3-0.2-0.5-0.5-0.6-0.8c-0.2-0.3-0.2-0.7-0.3-1.1l1.2-0.1c0.1,0.5,0.2,0.8,0.4,1c0.1,0.2,0.3,0.2,0.5,0.2c0.3,0,0.5-0.1,0.6-0.4
		c0.1-0.1,0.1-0.3,0.1-0.5c0-0.3-0.2-0.7-0.5-1c-0.2-0.2-0.6-0.6-1.1-1c-0.4-0.4-0.7-0.7-0.9-1c-0.2-0.3-0.3-0.7-0.3-1.1
		c0-0.7,0.2-1.3,0.7-1.7c0.3-0.2,0.7-0.3,1.1-0.3c0.4,0,0.8,0.1,1.1,0.3c0.2,0.1,0.4,0.4,0.6,0.6c0.1,0.3,0.2,0.6,0.3,0.9l-1.2,0.2
		c0-0.3-0.1-0.6-0.3-0.8c-0.1-0.1-0.3-0.2-0.5-0.2c-0.2,0-0.4,0.1-0.5,0.3c-0.1,0.2-0.1,0.4-0.1,0.6c0,0.4,0.2,0.7,0.5,1.1
		c0.1,0.1,0.3,0.3,0.5,0.5c0.3,0.2,0.5,0.4,0.6,0.5c0.3,0.3,0.5,0.6,0.7,0.9c0.1,0.1,0.1,0.3,0.2,0.4
		C-180.2,602.5-180.2,602.7-180.2,603z"/>
</g>
<rect x="-280.8" y="602.7" style="fill:none;" width="102.6" height="9.2"/>
<text transform="matrix(1 0 0 1 -280.8335 610.7304)" class="st4" style="font-family:'Bebas'; font-size:9px; letter-spacing:1;">BUENAS EXPERIENCIAS</text>
<g id="XMLID_2492_">
	<g id="XMLID_2499_">
		<path id="XMLID_2661_" class="st5" d="M-281.2,624.8c0-0.6,0.3-0.9,0.9-0.9h6.1c5.2,0,9.3,2.7,9.3,10.6c0,7.8-4.1,10.6-9.3,10.6
			h-6.1c-0.6,0-0.9-0.3-0.9-0.9V624.8z M-274.4,642.7c3.8,0,6.8-2.2,6.8-8.3c0-6-3-8.3-6.8-8.3h-4.1v16.6H-274.4z"/>
		<path id="XMLID_2658_" class="st5" d="M-254.8,629c4.1,0,6.2,2.7,6.2,7.9c0,0.4-0.6,1.2-1,1.2h-9.5c0.2,3.3,1.7,4.9,4.6,4.9
			c2.6,0,4.1-1.3,4.4-1.3c0.4,0,1.1,1.2,1.1,1.5c0,0.7-2.4,1.9-5.4,1.9c-5,0-7.4-2.6-7.4-8C-261.9,631.9-259.5,629-254.8,629z
			 M-251.3,636c0-3.2-1.2-4.8-3.6-4.8c-2.6,0-4,1.6-4.2,4.8H-251.3z"/>
		<path id="XMLID_2656_" class="st5" d="M-238.8,629c2.3,0,4.5,0.7,4.5,1.4c0,0.5-0.6,1.6-1,1.6c-0.1,0-0.2-0.1-0.3-0.1
			c-0.5-0.2-1.7-0.7-3.3-0.7c-2.7,0-4.4,1.6-4.4,5.8s1.3,6,4.7,6c1.7,0,2.9-0.5,3.4-0.8c0.2-0.1,0.3-0.1,0.3-0.1c0.4,0,1,1.1,1,1.5
			c0,0.7-2.1,1.5-4.7,1.5c-4.9,0-7.4-2.3-7.4-8.1C-245.9,630.7-242.2,629-238.8,629z"/>
		<path id="XMLID_2654_" class="st5" d="M-231,623c0-0.4,0.4-0.7,1.2-0.7h0.1c0.8,0,1.2,0.2,1.2,0.7v17.8c0,1.8,0.8,2.2,1.6,2.2
			c0.9,0,1-0.2,1.3-0.2c0.4,0,0.6,1.2,0.6,1.4c0,0.8-1.4,0.9-2.2,0.9c-1.5,0-3.9-0.7-3.9-4.2V623H-231z"/>
		<path id="XMLID_2594_" class="st5" d="M-222.1,629.8c0-0.4,0.4-0.7,1.2-0.7h0.1c0.8,0,1.2,0.2,1.2,0.7v14.6c0,0.4-0.4,0.7-1.2,0.7
			h-0.1c-0.8,0-1.2-0.2-1.2-0.7V629.8z"/>
		<path id="XMLID_2592_" class="st5" d="M-215.1,633.8c0-2.5-0.4-3.7-0.4-3.8c0-0.6,1.2-0.7,1.6-0.7c0.7,0,0.9,1.2,1.1,2
			c1-1.1,2.7-2.3,4.6-2.3c1.5,0,3.5,0.5,4.3,2.5c1.1-1.4,2.9-2.5,4.8-2.5c1.9,0,4.7,0.8,4.7,4.9v10.5c0,0.4-0.4,0.7-1.2,0.7h-0.1
			c-0.8,0-1.2-0.2-1.2-0.7v-10.2c0-1.8-1-2.9-2.9-2.9c-1.8,0-3.3,1.6-3.7,2.1c0,0.2,0,0.4,0,0.6v10.4c0,0.4-0.4,0.7-1.2,0.7h-0.1
			c-0.8,0-1.2-0.2-1.2-0.7v-10.2c0-1.8-1-2.9-2.9-2.9c-2.2,0-3.7,2.1-3.7,2.1v11.1c0,0.4-0.4,0.7-1.2,0.7h-0.1
			c-0.8,0-1.2-0.2-1.2-0.7L-215.1,633.8L-215.1,633.8z"/>
		<path id="XMLID_2503_" class="st5" d="M-181.1,635.2v-1.5c0-1.4-0.8-2.5-3.3-2.5c-2.7,0-4.4,1.3-4.7,1.3c-0.4,0-1.1-1.2-1.1-1.5
			c0-0.8,2.7-1.9,5.7-1.9c3.7,0,5.9,1.8,5.9,4.7v6.8c0,2.5,0.4,3.7,0.4,3.8c0,0.6-1.2,0.7-1.6,0.7c-0.7,0-0.9-1.3-1.1-2.1
			c-1.1,1.3-2.8,2.3-5.1,2.3c-2.9,0-5.2-1.4-5.2-4.5C-191.1,635.6-185.7,635.2-181.1,635.2z M-185.8,643c2.2,0,3.5-1,4.7-2.1v-3.6
			c-3.1,0-7.3,0-7.3,3.2C-188.4,642.1-187.5,643-185.8,643z"/>
	</g>
	<path id="XMLID_2493_" class="st5" d="M-221.2,622.3h0.8c0.5,0,0.8,0.4,0.8,0.8v3.4h-2.5v-3.3
		C-222.1,622.7-221.7,622.3-221.2,622.3z"/>
</g>
<g>
	<path class="st5" d="M-276.7,657.5c0,0.2,0,0.4-0.1,0.6c-0.1,0.2-0.2,0.3-0.4,0.5c-0.2,0.1-0.3,0.2-0.5,0.3
		c-0.2,0.1-0.4,0.1-0.7,0.1h-2.8v-5.8h2.9c0.2,0,0.4,0,0.5,0.1c0.2,0.1,0.3,0.2,0.4,0.3c0.1,0.1,0.2,0.3,0.3,0.5
		c0.1,0.2,0.1,0.4,0.1,0.5c0,0.3-0.1,0.6-0.2,0.8c-0.1,0.2-0.4,0.4-0.6,0.5c0.3,0.1,0.6,0.3,0.8,0.5
		C-276.8,656.9-276.7,657.2-276.7,657.5z M-280.5,653.9v1.9h1.9c0.1,0,0.3,0,0.4-0.1c0.1-0.1,0.2-0.1,0.3-0.2
		c0.1-0.1,0.1-0.2,0.2-0.3c0-0.1,0.1-0.2,0.1-0.4c0-0.1,0-0.3-0.1-0.4c0-0.1-0.1-0.2-0.2-0.3c-0.1-0.1-0.2-0.2-0.3-0.2
		c-0.1,0-0.2-0.1-0.3-0.1H-280.5z M-277.5,657.4c0-0.1,0-0.3-0.1-0.4c0-0.1-0.1-0.2-0.2-0.3c-0.1-0.1-0.2-0.2-0.3-0.2
		c-0.1-0.1-0.2-0.1-0.4-0.1h-2.1v2h2c0.1,0,0.3,0,0.4-0.1c0.1-0.1,0.2-0.1,0.3-0.2s0.2-0.2,0.2-0.3
		C-277.5,657.7-277.5,657.5-277.5,657.4z"/>
	<path class="st5" d="M-272.7,658.4c0.3,0,0.6-0.1,0.8-0.2c0.2-0.1,0.4-0.3,0.5-0.5c0.1-0.2,0.2-0.5,0.3-0.7
		c0.1-0.3,0.1-0.5,0.1-0.8v-2.9h0.7v2.9c0,0.4,0,0.8-0.1,1.1c-0.1,0.4-0.2,0.7-0.4,0.9c-0.2,0.3-0.5,0.5-0.8,0.6
		c-0.3,0.2-0.7,0.2-1.1,0.2c-0.5,0-0.9-0.1-1.2-0.2c-0.3-0.2-0.6-0.4-0.8-0.7c-0.2-0.3-0.3-0.6-0.4-0.9c-0.1-0.4-0.1-0.7-0.1-1.1
		v-2.9h0.7v2.9c0,0.3,0,0.6,0.1,0.8c0.1,0.3,0.2,0.5,0.3,0.7c0.1,0.2,0.3,0.4,0.5,0.5C-273.3,658.4-273,658.4-272.7,658.4z"/>
	<path class="st5" d="M-264.3,658.4v0.7h-4v-5.8h3.9v0.7h-3.1v1.9h2.7v0.6h-2.7v2H-264.3z"/>
	<path class="st5" d="M-261.9,654.6v4.4h-0.7v-5.8h0.6l3.6,4.5v-4.5h0.7v5.8h-0.6L-261.9,654.6z"/>
	<path class="st5" d="M-254,653.2h0.6l2.4,5.8h-0.8l-0.7-1.7h-2.4l-0.7,1.7h-0.8L-254,653.2z M-252.6,656.8l-1-2.7l-1.1,2.7H-252.6z
		"/>
	<path class="st5" d="M-246.2,654.4c-0.1-0.1-0.2-0.2-0.3-0.2c-0.1-0.1-0.2-0.1-0.4-0.2c-0.1-0.1-0.3-0.1-0.4-0.1
		c-0.2,0-0.3-0.1-0.5-0.1c-0.5,0-0.8,0.1-1,0.3s-0.3,0.4-0.3,0.7c0,0.2,0,0.3,0.1,0.4c0.1,0.1,0.2,0.2,0.3,0.3
		c0.1,0.1,0.3,0.1,0.5,0.2c0.2,0.1,0.4,0.1,0.7,0.2c0.3,0.1,0.6,0.1,0.8,0.2c0.2,0.1,0.5,0.2,0.6,0.3c0.2,0.1,0.3,0.3,0.4,0.5
		c0.1,0.2,0.1,0.4,0.1,0.7c0,0.3-0.1,0.5-0.2,0.7c-0.1,0.2-0.3,0.4-0.4,0.5c-0.2,0.1-0.4,0.2-0.7,0.3c-0.3,0.1-0.5,0.1-0.8,0.1
		c-0.4,0-0.9-0.1-1.3-0.2c-0.4-0.1-0.8-0.3-1.1-0.6l0.4-0.6c0.1,0.1,0.2,0.2,0.3,0.3c0.1,0.1,0.3,0.2,0.5,0.3
		c0.2,0.1,0.4,0.1,0.6,0.2c0.2,0,0.4,0.1,0.6,0.1c0.4,0,0.7-0.1,1-0.2c0.2-0.1,0.3-0.4,0.3-0.7c0-0.2,0-0.3-0.1-0.4
		c-0.1-0.1-0.2-0.2-0.3-0.3c-0.1-0.1-0.3-0.2-0.5-0.2c-0.2-0.1-0.5-0.1-0.7-0.2c-0.3-0.1-0.6-0.1-0.8-0.2c-0.2-0.1-0.4-0.2-0.6-0.3
		c-0.2-0.1-0.3-0.3-0.3-0.4c-0.1-0.2-0.1-0.4-0.1-0.6c0-0.3,0.1-0.5,0.2-0.7c0.1-0.2,0.2-0.4,0.4-0.5c0.2-0.1,0.4-0.3,0.7-0.3
		c0.3-0.1,0.5-0.1,0.8-0.1c0.4,0,0.7,0.1,1.1,0.2c0.3,0.1,0.6,0.3,0.8,0.5L-246.2,654.4z"/>
	<path class="st5" d="M-237.4,658.4v0.7h-4v-5.8h3.9v0.7h-3.1v1.9h2.7v0.6h-2.7v2H-237.4z"/>
	<path class="st5" d="M-235.6,653.2l1.8,2.4l1.8-2.4h0.8l-2.2,3l2.1,2.9h-0.8l-1.7-2.3l-1.7,2.3h-0.8l2.1-2.9l-2.2-3H-235.6z"/>
	<path class="st5" d="M-229.9,659v-5.8h2.4c0.3,0,0.5,0.1,0.7,0.2c0.2,0.1,0.4,0.2,0.6,0.4c0.2,0.2,0.3,0.4,0.4,0.6
		c0.1,0.2,0.1,0.4,0.1,0.7c0,0.2,0,0.5-0.1,0.7c-0.1,0.2-0.2,0.4-0.3,0.6c-0.2,0.2-0.3,0.3-0.5,0.4c-0.2,0.1-0.4,0.2-0.7,0.2h-1.7
		v2.1H-229.9z M-229.2,656.3h1.7c0.2,0,0.3,0,0.4-0.1c0.1-0.1,0.2-0.2,0.3-0.3c0.1-0.1,0.2-0.2,0.2-0.4c0-0.1,0.1-0.3,0.1-0.5
		c0-0.2,0-0.3-0.1-0.5c-0.1-0.1-0.1-0.3-0.2-0.4c-0.1-0.1-0.2-0.2-0.3-0.3c-0.1-0.1-0.3-0.1-0.4-0.1h-1.6V656.3z"/>
	<path class="st5" d="M-220.2,658.4v0.7h-4v-5.8h3.9v0.7h-3.1v1.9h2.7v0.6h-2.7v2H-220.2z"/>
	<path class="st5" d="M-218.6,659v-5.8h2.5c0.3,0,0.5,0.1,0.7,0.2c0.2,0.1,0.4,0.2,0.6,0.4c0.2,0.2,0.3,0.4,0.4,0.6
		c0.1,0.2,0.1,0.4,0.1,0.7c0,0.2,0,0.4-0.1,0.6c-0.1,0.2-0.1,0.4-0.2,0.5c-0.1,0.2-0.2,0.3-0.4,0.4c-0.2,0.1-0.3,0.2-0.5,0.2
		l1.4,2.2h-0.8l-1.3-2.1h-1.5v2.1H-218.6z M-217.8,656.3h1.8c0.2,0,0.3,0,0.4-0.1c0.1-0.1,0.2-0.2,0.3-0.3s0.2-0.2,0.2-0.4
		s0.1-0.3,0.1-0.5c0-0.2,0-0.3-0.1-0.5c-0.1-0.1-0.1-0.3-0.2-0.4c-0.1-0.1-0.2-0.2-0.3-0.3c-0.1-0.1-0.3-0.1-0.4-0.1h-1.7V656.3z"/>
	<path class="st5" d="M-212.6,659v-5.8h0.7v5.8H-212.6z"/>
	<path class="st5" d="M-205.9,658.4v0.7h-4v-5.8h3.9v0.7h-3.1v1.9h2.7v0.6h-2.7v2H-205.9z"/>
	<path class="st5" d="M-203.5,654.6v4.4h-0.7v-5.8h0.6l3.6,4.5v-4.5h0.7v5.8h-0.6L-203.5,654.6z"/>
	<path class="st5" d="M-197.7,656.1c0-0.4,0.1-0.7,0.2-1c0.1-0.3,0.3-0.7,0.5-0.9c0.2-0.3,0.5-0.5,0.9-0.7c0.3-0.2,0.7-0.3,1.2-0.3
		c0.5,0,1,0.1,1.3,0.4c0.4,0.2,0.6,0.5,0.8,0.9l-0.6,0.4c-0.1-0.2-0.2-0.3-0.3-0.5c-0.1-0.1-0.3-0.2-0.4-0.3
		c-0.1-0.1-0.3-0.1-0.4-0.2c-0.2,0-0.3-0.1-0.5-0.1c-0.3,0-0.6,0.1-0.9,0.2c-0.2,0.1-0.5,0.3-0.6,0.5c-0.2,0.2-0.3,0.5-0.4,0.7
		c-0.1,0.3-0.1,0.5-0.1,0.8c0,0.3,0.1,0.6,0.2,0.9c0.1,0.3,0.2,0.5,0.4,0.7c0.2,0.2,0.4,0.4,0.6,0.5c0.2,0.1,0.5,0.2,0.8,0.2
		c0.2,0,0.3,0,0.5-0.1c0.2,0,0.3-0.1,0.5-0.2c0.1-0.1,0.3-0.2,0.4-0.3c0.1-0.1,0.2-0.3,0.3-0.5l0.6,0.3c-0.1,0.2-0.2,0.4-0.4,0.6
		c-0.2,0.2-0.4,0.3-0.6,0.4s-0.4,0.2-0.7,0.3c-0.2,0.1-0.5,0.1-0.7,0.1c-0.4,0-0.8-0.1-1.1-0.3c-0.3-0.2-0.6-0.4-0.9-0.7
		c-0.2-0.3-0.4-0.6-0.6-1C-197.6,656.8-197.7,656.5-197.7,656.1z"/>
	<path class="st5" d="M-191.1,659v-5.8h0.7v5.8H-191.1z"/>
	<path class="st5" d="M-186.5,653.2h0.6l2.4,5.8h-0.8l-0.7-1.7h-2.4l-0.7,1.7h-0.8L-186.5,653.2z M-185.2,656.8l-1.1-2.7l-1.1,2.7
		H-185.2z"/>
	<path class="st5" d="M-178.8,654.4c-0.1-0.1-0.2-0.2-0.3-0.2c-0.1-0.1-0.2-0.1-0.4-0.2c-0.1-0.1-0.3-0.1-0.4-0.1
		c-0.2,0-0.3-0.1-0.5-0.1c-0.5,0-0.8,0.1-1,0.3s-0.3,0.4-0.3,0.7c0,0.2,0,0.3,0.1,0.4c0.1,0.1,0.2,0.2,0.3,0.3
		c0.1,0.1,0.3,0.1,0.5,0.2c0.2,0.1,0.4,0.1,0.7,0.2c0.3,0.1,0.6,0.1,0.8,0.2c0.2,0.1,0.5,0.2,0.6,0.3c0.2,0.1,0.3,0.3,0.4,0.5
		c0.1,0.2,0.1,0.4,0.1,0.7c0,0.3-0.1,0.5-0.2,0.7c-0.1,0.2-0.3,0.4-0.4,0.5c-0.2,0.1-0.4,0.2-0.7,0.3c-0.3,0.1-0.5,0.1-0.8,0.1
		c-0.4,0-0.9-0.1-1.3-0.2c-0.4-0.1-0.8-0.3-1.1-0.6l0.4-0.6c0.1,0.1,0.2,0.2,0.3,0.3c0.1,0.1,0.3,0.2,0.5,0.3
		c0.2,0.1,0.4,0.1,0.6,0.2c0.2,0,0.4,0.1,0.6,0.1c0.4,0,0.7-0.1,1-0.2c0.2-0.1,0.3-0.4,0.3-0.7c0-0.2,0-0.3-0.1-0.4
		c-0.1-0.1-0.2-0.2-0.3-0.3c-0.1-0.1-0.3-0.2-0.5-0.2c-0.2-0.1-0.5-0.1-0.7-0.2c-0.3-0.1-0.6-0.1-0.8-0.2c-0.2-0.1-0.4-0.2-0.6-0.3
		c-0.2-0.1-0.3-0.3-0.3-0.4c-0.1-0.2-0.1-0.4-0.1-0.6c0-0.3,0.1-0.5,0.2-0.7c0.1-0.2,0.2-0.4,0.4-0.5c0.2-0.1,0.4-0.3,0.7-0.3
		c0.3-0.1,0.5-0.1,0.8-0.1c0.4,0,0.7,0.1,1.1,0.2c0.3,0.1,0.6,0.3,0.8,0.5L-178.8,654.4z"/>
</g>
</svg>
