<?xml version="1.0" encoding="utf-8"?>
<!-- Generator: Adobe Illustrator 19.0.0, SVG Export Plug-In . SVG Version: 6.00 Build 0)  -->
<svg version="1.1" id="Capa_1" xmlns="http://www.w3.org/2000/svg" xmlns:xlink="http://www.w3.org/1999/xlink" x="0px" y="0px"
	 viewBox="-355 616.3 89 48.7" style="enable-background:new -355 616.3 89 48.7;" xml:space="preserve">
<style type="text/css">
	.st0{fill-rule:evenodd;clip-rule:evenodd;fill:#FFFFFF;}
</style>
<g>
	<polygon class="st0" points="-346,646.9 -349.4,646.9 -349.4,637.3 -353.2,637.3 -353.2,634.4 -341.9,634.4 -341.9,637.3 
		-346,637.3 -346,646.9 -346,646.9 	"/>
	<path class="st0" d="M-340.4,637.7c0.5-2.9,3.1-3.4,5.6-3.4c4.3,0,5.8,1.1,5.8,5.6c0,4.6-0.1,7.1-5.7,7.1c-2.2,0-4.9-0.2-5.6-2.7
		c-0.2-0.8-0.3-1.7-0.3-2.6l0,0v-0.9l0,0C-340.5,639.7-340.5,638.7-340.4,637.7L-340.4,637.7L-340.4,637.7L-340.4,637.7z
		 M-337.1,641.4c0,1.8,0,2.7,2.1,2.7c2.3,0,2.6-0.6,2.6-2.7c0-0.6,0-1.2,0-1.8c0-1.7-0.3-2.4-2.1-2.4c-2.6,0-2.7,0.3-2.7,3.5l0,0
		V641.4L-337.1,641.4L-337.1,641.4z"/>
	<path class="st0" d="M-319.1,638.3c0-1.3-0.4-1.4-1.6-1.4l0,0h-0.3l0,0c-0.9,0-1.8,0-1.8,1.1c0,0.8,0.2,1.1,1,1.2
		c2.9,0.2,6.3-0.3,6.3,3.7c0,1.1,0,2.4-0.9,3.2c-1,0.9-2.4,0.9-3.8,0.9l0,0h-0.8l0,0c-3.4,0-5.2-0.1-5.2-4.1l0,0h3.2l0,0
		c0,0.9,0.2,1.5,1.3,1.5l0,0h1.4l0,0c0.8,0,1.5-0.1,1.5-1.2c0-1.1-0.7-1.1-1.6-1.2c-3.6-0.2-5.8,0.1-5.8-4.1c0-2.2,0.9-3.3,3.1-3.5
		c0.7-0.1,1.5-0.1,2.2-0.1c2.9,0,5,0.1,5,3.6c0,0.1,0,0.3,0,0.4l0,0H-319.1L-319.1,638.3L-319.1,638.3z"/>
	<polygon class="st0" points="-301.9,646.9 -305.3,646.9 -305.3,642 -309.6,642 -309.6,646.9 -313,646.9 -313,634.4 -309.6,634.4 
		-309.6,639.1 -305.3,639.1 -305.3,634.4 -301.9,634.4 -301.9,646.9 -301.9,646.9 	"/>
	<polygon class="st0" points="-295.4,646.9 -298.8,646.9 -298.8,634.4 -295.4,634.4 -295.4,646.9 -295.4,646.9 	"/>
	<path class="st0" d="M-292.2,634.4h6.8l0,0c2.3,0,3.7,0.6,3.7,3.2c0,1.4-0.1,2.6-1.9,2.9l0,0v0.1l0,0c1.7,0.1,2.1,1,2.1,2.7
		c0,2.8-0.9,3.6-3.9,3.6l0,0h-6.8V634.4L-292.2,634.4L-292.2,634.4z M-286.7,639.4c0.9,0,1.7,0.1,1.7-1.1c0-0.9-0.2-1.2-1.1-1.2l0,0
		h-2.7v2.2H-286.7L-286.7,639.4L-286.7,639.4z M-286.6,644.1c1,0,1.8,0,1.8-1.2c0-1.2-0.5-1.2-1.6-1.2l0,0h-2.4v2.4H-286.6
		L-286.6,644.1L-286.6,644.1z"/>
	<path class="st0" d="M-271.2,646.9h3.4l-3.8-12.5h-5.1l-3.7,12.5h3.5l0.7-2.5h4.3L-271.2,646.9L-271.2,646.9L-271.2,646.9z
		 M-275.5,642l1.4-5.1l1.5,5.1H-275.5L-275.5,642L-275.5,642z"/>
</g>
</svg>
